<?xml version="1.0" encoding="UTF-8" standalone="no"?>
<!-- Created with Inkscape (http://www.inkscape.org/) -->

<svg
   xmlns:dc="http://purl.org/dc/elements/1.1/"
   xmlns:cc="http://creativecommons.org/ns#"
   xmlns:rdf="http://www.w3.org/1999/02/22-rdf-syntax-ns#"
   xmlns:svg="http://www.w3.org/2000/svg"
   xmlns="http://www.w3.org/2000/svg"
   xmlns:xlink="http://www.w3.org/1999/xlink"
   xmlns:inkscape="http://www.inkscape.org/namespaces/inkscape"
   version="1.0"
   width="256"
   height="256"
   id="svg3246">
  <metadata
     id="metadata19">
    <rdf:RDF>
      <cc:Work
         rdf:about="">
        <dc:format>image/svg+xml</dc:format>
        <dc:type
           rdf:resource="http://purl.org/dc/dcmitype/StillImage" />
      </cc:Work>
    </rdf:RDF>
  </metadata>
  <defs
     id="defs2426">
    <linearGradient
       x1="112.49854"
       y1="6.1372099"
       x2="112.49853"
       y2="129.3468"
       id="path1082_2_"
       gradientUnits="userSpaceOnUse"
       gradientTransform="translate(287,-83)">
      <stop
         id="stop193"
         style="stop-color:#ffffff;stop-opacity:0"
         offset="0" />
      <stop
         id="stop195"
         style="stop-color:#ffffff;stop-opacity:0.27450982"
         offset="1" />
      <midPointStop
         id="midPointStop197"
         style="stop-color:#FFFFFF"
         offset="0" />
      <midPointStop
         id="midPointStop199"
         style="stop-color:#FFFFFF"
         offset="0.5" />
      <midPointStop
         id="midPointStop201"
         style="stop-color:#000000"
         offset="1" />
    </linearGradient>
    <linearGradient
       x1="541.33502"
       y1="104.50665"
       x2="606.91248"
       y2="303.14029"
       id="linearGradient3817"
       xlink:href="#path1082_2_"
       gradientUnits="userSpaceOnUse"
       gradientTransform="matrix(-0.6066055,0,0,0.6065715,581.83285,65.833783)" />
  </defs>
  <g
     transform="translate(-57.51784,-56.601259)"
     id="layer1">
    <path
       d="M 127.96875,0 C 116.57392,27.937051 109.68664,46.23717 97,73.34375 104.7785,81.58896 114.33826,91.1555 129.84375,102 113.17382,95.140421 101.81018,88.27149 93.3125,81.125 77.076033,115.00488 51.62165,163.24639 0,256 41.287784,232.16383 73.123861,217.59935 102.875,212.3125 l 0,-0.15625 0,-18.8125 c 7.72965,-0.50528 17.87742,-1.71729 27.03125,-3.4375 -9.15383,-1.72021 -19.3016,-2.93222 -27.03125,-3.4375 l 0,-18.8125 c 7.73805,-0.50583 17.9009,-1.7143 27.0625,-3.4375 -9.16288,-1.72379 -19.32305,-2.96283 -27.0625,-3.46875 l 0,-18.8125 c 18.32213,-1.19771 50.25,-6.29142 50.25,-12.90625 l 0,18.96875 c -1.24952,0.95349 -3.17347,1.95597 -5.59375,2.9375 3.45206,1.30578 5.59375,2.60448 5.59375,3.78125 l 0,18.96875 c -1.25834,0.96022 -3.2118,1.94721 -5.65625,2.9375 3.48734,1.3134 5.65625,2.59772 5.65625,3.78125 l 0,19 c -5.53497,4.22364 -24.22192,9.0423 -41.15625,11.59375 43.1847,-4.97655 83.46197,10.03226 144.03125,45 -7.89193,-14.52961 -14.99176,-27.61983 -21.71875,-40.09375 -10.5961,-8.21269 -21.64301,-18.89742 -44.1875,-30.46875 15.49579,4.02645 26.60184,8.6825 35.25,13.875 C 156.94858,71.972663 151.42297,55.040376 127.96875,0 z m 22.3125,158.125 c -0.35433,0.21214 -0.74474,0.44902 -1.15625,0.65625 0.42454,-0.213 0.79233,-0.43803 1.15625,-0.65625 z M 116.5,158.84375 c -0.87334,0.14933 -1.7559,0.29904 -2.625,0.4375 0.87533,-0.13895 1.74536,-0.28758 2.625,-0.4375 z m -6.375,1 c -1.00054,0.14182 -1.98771,0.28192 -2.96875,0.40625 0.98503,-0.12442 1.96398,-0.26431 2.96875,-0.40625 z M 149.03125,184.5 c -0.40605,0.20132 -0.8561,0.39735 -1.3125,0.59375 0.45162,-0.19468 0.91023,-0.39426 1.3125,-0.59375 z m -32.625,0.0937 c -0.84123,0.14394 -1.69402,0.27247 -2.53125,0.40625 0.84441,-0.13496 1.68277,-0.26092 2.53125,-0.40625 z m -6.28125,0.96875 c -1.00054,0.14217 -1.98771,0.28171 -2.96875,0.40625 0.98322,-0.1247 1.9659,-0.26377 2.96875,-0.40625 z"
       inkscape:connector-curvature="0"
       transform="translate(57.51784,56.601259)"
       id="path2518"
       style="fill:#c71b1e;fill-opacity:1;fill-rule:evenodd;stroke:none" />
    <path
       d="M 257.5696,208.75902 C 202.08304,133.44776 189.22185,72.749173 185.96416,58.257768 215.5623,126.52704 215.36013,127.36422 257.5696,208.75902 z"
       inkscape:connector-curvature="0"
       id="path2522"
       style="fill:#ffffff;fill-opacity:0.16568047;fill-rule:evenodd;stroke:none" />
    <path
       d="m 185.98659,57.695009 c -1.42338,3.499183 -2.81007,6.894756 -4.125,10.125 -1.45671,3.578408 -2.84196,6.99457 -4.21875,10.34375 -1.37667,3.349221 -2.74109,6.617678 -4.09375,9.84375 -1.35275,3.226219 -2.70913,6.415755 -4.09375,9.625 -1.38453,3.209121 -2.77769,6.451801 -4.25,9.750001 -1.47231,3.2983 -3.00915,6.6628 -4.625,10.15625 -1.61599,3.49349 -3.3097,7.11161 -5.125,10.90625 -0.25144,0.52558 -0.55662,1.12373 -0.8125,1.65625 7.75455,8.21322 17.30152,17.71724 32.71875,28.5 -16.62707,-6.84195 -27.9782,-13.68579 -36.46875,-20.8125 -0.44082,0.89993 -0.8271,1.7035 -1.28125,2.625 -0.59775,1.21296 -1.31546,2.59119 -1.9375,3.84375 -0.31542,0.64673 -0.64651,1.34249 -0.96875,2 -8.03188,16.38875 -18.34295,36.42086 -32.21875,62.375 32.4656,-18.29162 67.48339,-44.68199 131.09375,-21.96875 -3.18932,-6.0405 -6.12134,-11.70535 -8.875,-17.03125 -2.75362,-5.32607 -5.31196,-10.31478 -7.6875,-15.03125 -2.37536,-4.71637 -4.57043,-9.16304 -6.625,-13.375 -2.05455,-4.21186 -3.959,-8.18727 -5.75,-12 -1.7911,-3.81264 -3.47764,-7.48144 -5.0625,-11 -1.58496,-3.51852 -3.09501,-6.88931 -4.53125,-10.21875 -1.43639,-3.32962 -2.81139,-6.59831 -4.15625,-9.843751 -1.34499,-3.245541 -2.65791,-6.483239 -3.96875,-9.75 -0.33293,-0.829513 -0.66696,-1.696124 -1,-2.53125 -3.72832,-8.739675 -7.50706,-17.78017 -11.9375,-28.1875 z"
       inkscape:connector-curvature="0"
       id="path2520"
       style="fill:url(#linearGradient3817);fill-opacity:1;fill-rule:evenodd;stroke:none" />
    <path
       d="m 147.53125,150.9375 c -10.26387,4.17007 -29.53259,8.26671 -44.65625,9.8125 7.75637,0.50703 17.94649,1.73902 27.125,3.46875 12.50054,-2.35506 23.125,-5.6842 23.125,-9.5 0,-1.17677 -2.14169,-2.47547 -5.59375,-3.78125 z"
       inkscape:connector-curvature="0"
       transform="translate(57.51784,56.601259)"
       id="path3857"
       style="fill:#c71b1e;fill-opacity:0.50196078;fill-rule:evenodd;stroke:none" />
    <path
       d="m 147.46875,176.625 c -10.27659,4.163 -29.49525,8.30053 -44.59375,9.84375 7.72965,0.50528 17.87742,1.71729 27.03125,3.4375 12.53957,-2.35607 23.21875,-5.67504 23.21875,-9.5 0,-1.18353 -2.16891,-2.46785 -5.65625,-3.78125 z"
       inkscape:connector-curvature="0"
       transform="translate(57.51784,56.601259)"
       id="path3865"
       style="fill:#c71b1e;fill-opacity:0.50196078;fill-rule:evenodd;stroke:none" />
  </g>
</svg>
